<svg id="visual" viewBox="0 0 960 540" width="960" height="540" xmlns="http://www.w3.org/2000/svg" xmlns:xlink="http://www.w3.org/1999/xlink" version="1.1"><rect x="0" y="0" width="960" height="540" fill="#001220"></rect><defs><linearGradient id="grad1_0" x1="43.8%" y1="0%" x2="100%" y2="100%"><stop offset="14.444444444444446%" stop-color="#001220" stop-opacity="1"></stop><stop offset="85.55555555555554%" stop-color="#001220" stop-opacity="1"></stop></linearGradient></defs><defs><linearGradient id="grad2_0" x1="0%" y1="0%" x2="56.3%" y2="100%"><stop offset="14.444444444444446%" stop-color="#001220" stop-opacity="1"></stop><stop offset="85.55555555555554%" stop-color="#001220" stop-opacity="1"></stop></linearGradient></defs><g transform="translate(960, 0)"><path d="M0 432C-44.4 424.8 -88.8 417.6 -131.6 405.2C-174.4 392.7 -215.6 375 -253.9 349.5C-292.2 324 -327.7 290.8 -345.5 251C-363.2 211.1 -363.2 164.7 -374.7 121.8C-386.2 78.8 -409.1 39.4 -432 0L0 0Z" fill="#6600FF"></path></g><g transform="translate(0, 540)"><path d="M0 -432C42.9 -422.1 85.9 -412.2 130.4 -401.3C174.9 -390.4 221.1 -378.5 253.9 -349.5C286.7 -320.5 306.2 -274.4 321.2 -233.4C336.1 -192.3 346.5 -156.4 364.3 -118.4C382 -80.3 407 -40.2 432 0L0 0Z" fill="#6600FF"></path></g></svg>